<svg xmlns="http://www.w3.org/2000/svg" viewBox="0 0 480 100" fill="none">
  
  <g transform="translate(0, 10)">
    
    <rect x="18" y="20" width="3" height="52" rx="1.5" fill="#1C3829"></rect>
    
    <rect x="30" y="10" width="3" height="62" rx="1.5" fill="#1C3829"></rect>
    
    <rect x="42" y="20" width="3" height="52" rx="1.5" fill="#1C3829"></rect>
    
    <path d="M31.5 18 C31.5 18 44 12 48 4 C48 4 36 2 31.5 18Z" fill="#2E5339"></path>
    <path d="M31.5 18 C31.5 18 18 8 16 2 C16 2 28 -2 31.5 18Z" fill="#7A9E87" opacity="0.7"></path>
    
    <rect x="12" y="72" width="39" height="3" rx="1.5" fill="#1C3829"></rect>
    
    <circle cx="19.5" cy="45" r="1.5" fill="#7A9E87" opacity="0.6"></circle>
    <circle cx="31.5" cy="38" r="1.5" fill="#7A9E87" opacity="0.6"></circle>
    <circle cx="43.5" cy="45" r="1.5" fill="#7A9E87" opacity="0.6"></circle>
  </g>
  
  <text x="72" y="62" font-family="&#39;Cormorant Garamond&#39;, Georgia, serif" font-size="38" font-weight="400" letter-spacing="-0.5" fill="#1C3829">Von Kaiser</text>
  <text x="72" y="82" font-family="&#39;DM Sans&#39;, system-ui, sans-serif" font-size="13" font-weight="400" letter-spacing="5" fill="#7A9E87">FARMS</text>
</svg>